<?xml version="1.0" encoding="UTF-8"?>
<svg width="1440px" height="429px" viewBox="0 0 1440 429" version="1.1" xmlns="http://www.w3.org/2000/svg" xmlns:xlink="http://www.w3.org/1999/xlink">
    <title>Icon_pattern last section</title>
    <defs>
        <rect id="path-1" x="0" y="0" width="1440" height="429"></rect>
        <rect id="path-3" x="0" y="0" width="2120" height="1403"></rect>
    </defs>
    <g id="Homepage" stroke="none" stroke-width="1" fill="none" fill-rule="evenodd">
        <g id="Homepage-v1" transform="translate(0.000000, -5494.000000)">
            <g id="Icon_pattern-last-section" transform="translate(0.000000, 5494.000000)">
                <mask id="mask-2" fill="white">
                    <use xlink:href="#path-1"></use>
                </mask>
                <g id="Mask"></g>
                <g mask="url(#mask-2)" id="Icon_background">
                    <g transform="translate(827.000000, -261.500000) scale(-1, 1) translate(-827.000000, 261.500000) translate(-233.000000, -963.000000)">
                        <mask id="mask-4" fill="white">
                            <use xlink:href="#path-3"></use>
                        </mask>
                        <g id="Mask"></g>
                        <path d="M-629.702794,4334.09827 C-2146.13053,4334.09827 -3379.79412,3093.29869 -3379.79412,1568.14392 C-3379.79412,1072.2447 -3247.73176,585.664454 -2997.84801,161.089735 C-2948.96006,78.089348 -2842.45932,50.6401156 -2759.93387,99.7368933 C-2677.40841,148.869931 -2650.08019,255.983581 -2698.96814,339.020228 C-2917.16126,709.748038 -3032.495,1134.79414 -3032.495,1568.14392 C-3032.495,2900.64642 -1954.61668,3984.76418 -629.702794,3984.76418 C695.175036,3984.76418 1773.05335,2900.64642 1773.05335,1568.14392 C1773.05335,1105.78571 1642.86576,656.481298 1396.58731,268.819814 C1344.95933,187.559933 1368.61013,79.5760304 1449.40504,27.6146697 C1530.236,-24.3104305 1637.56596,-0.523513095 1689.22999,80.7363678 C1971.27308,524.674218 2120.35248,1039.03005 2120.35248,1568.14392 C2120.35248,3093.29869 886.688888,4334.09827 -629.702794,4334.09827" id="Outside-line" fill="#DF694D" mask="url(#mask-4)"></path>
                        <path d="M-2735.4866,1981.89092 C-2756.75791,1887.79481 -2698.24379,1794.20634 -2604.6861,1772.84888 C-2511.09236,1751.45516 -2418.14757,1810.30602 -2396.84021,1904.32961 C-2209.32825,2732.59298 -1458.81171,3320.70275 -613.619838,3301.30336 C-135.988906,3290.75154 308.977954,3093.78427 639.260032,2746.55329 C969.54211,2399.43109 1145.66131,1943.67231 1135.13381,1463.29261 C1131.05982,1277.23975 1098.97259,1094.52287 1039.73742,920.218429 C1008.69573,828.986898 1057.11499,729.705526 1147.86054,698.521458 C1238.6782,667.301129 1337.31937,715.96278 1368.325,807.266832 C1439.13321,1015.51114 1477.49366,1233.65458 1482.36083,1455.60537 C1494.90729,2029.28345 1284.6098,2573.51797 890.189326,2988.08478 C495.732802,3402.65159 -35.5811353,3637.94626 -605.940536,3650.52867 C-621.623617,3650.89128 -637.306698,3651.07258 -652.917673,3651.07258 C-1643.61969,3651.07258 -2514.98609,2955.81289 -2735.4866,1981.89092 Z" id="Inside-line" fill="#DF694D" mask="url(#mask-4)"></path>
                    </g>
                </g>
            </g>
        </g>
    </g>
</svg>