<?xml version="1.0" encoding="utf-8"?>
<svg width="1440px" height="429px" viewBox="0 0 1440 429" version="1.1" xmlns="http://www.w3.org/2000/svg">
  <title>Icon_pattern last section</title>
  <defs>
    <rect id="path-1" x="0" y="0" width="1440" height="429"/>
    <rect id="path-3" x="0" y="0" width="2120" height="1403"/>
  </defs>
  <g id="Homepage" stroke="none" stroke-width="1" fill="none" fill-rule="evenodd">
    <g id="Homepage-v1" transform="translate(0.000000, -5494.000000)">
      <g id="Icon_pattern-last-section" transform="translate(0.000000, 5494.000000)">
        <mask id="mask-2" fill="white">
          <rect x="0" y="0" width="1440" height="429" transform="matrix(1, 0, 0, 1, 0, 0)"/>
        </mask>
        <g id="Mask"/>
        <g mask="url(#mask-2)" id="Icon_background">
          <g transform="translate(827.000000, -261.500000) scale(-1, 1) translate(-827.000000, 261.500000) translate(-233.000000, -963.000000)">
            <g id="Mask"/>
            <circle style="fill: rgb(223, 105, 77); paint-order: fill; stroke: rgb(223, 105, 77);" transform="matrix(-1, 0, 0, 1, 0, 0)" cx="-1604.83" cy="1244.551" r="151.318"/>
            <circle style="fill: rgb(223, 105, 77); paint-order: stroke; stroke: rgb(223, 105, 77);" transform="matrix(-1, 0, 0, 1, 0, 0)" cx="-1332.891" cy="1097.884" r="56.124"/>
            <circle style="paint-order: stroke; stroke: rgb(223, 105, 77); fill: rgb(223, 105, 77);" transform="matrix(-1, 0, 0, 1, 0, 0)" cx="-506.535" cy="995.248" r="7.442"/>
            <circle style="paint-order: stroke; stroke: rgb(223, 105, 77); fill: rgb(223, 105, 77);" transform="matrix(-1, 0, 0, 1, 0, 0)" cx="-537.853" cy="1053.233" r="22.016"/>
            <circle style="fill: rgb(223, 105, 77); paint-order: stroke; stroke: rgb(223, 105, 77);" transform="matrix(-1, 0, 0, 1, 0, 0)" cx="-629.946" cy="1382.225" r="91.783"/>
            <circle style="fill: rgb(223, 105, 77); paint-order: stroke; stroke: rgb(223, 105, 77);" transform="matrix(-1, 0, 0, 1, 0, 0)" cx="-1219.714" cy="1407.031" r="52.093"/>
            <circle style="stroke: rgb(223, 105, 77); fill: rgb(223, 105, 77); paint-order: stroke;" transform="matrix(-1, 0, 0, 1, 0, 0)" cx="-1812.891" cy="1026.566" r="21.395"/>
          </g>
        </g>
      </g>
    </g>
  </g>
</svg>